<?xml version="1.0" encoding="UTF-8"?><svg id="Layer_4" xmlns="http://www.w3.org/2000/svg" viewBox="0 0 1125 2436"><defs><style>.cls-1{fill:none;stroke:#ff5055;stroke-miterlimit:10;stroke-width:10px;}</style></defs><path class="cls-1" d="M460,2191.5s62,252,326,122,232-1010,232-1010c0,0-212-111-326,141s-16,566-16,566c0,0-503.9,177.59-481.45,4.3s-213.55-499.3-99.55-711.3,302,299,302,299c0,0,382-361,268-507s353.16-251.96,337.58-90.98,121.42-110.02,82.42-157.02-338-310-491-86,20,668-173,538S-23,1023.5,95,776.5c118-247,40,131,232,40S634,120.5,826,340.5s-99,216-99,216c0,0,296,182,319,95s51-481-20-492-443-85-530,48-59,452-169,432-270.55,12.15-263.28-70.93-4.72-369.07,109.28-330.07,122,280,83,295"/></svg>