<?xml version="1.0" encoding="UTF-8"?><svg id="Layer_3" xmlns="http://www.w3.org/2000/svg" viewBox="0 0 313 412.5"><defs><style>.cls-1{fill:#bbe3da;}.cls-2{fill:#193653;}.cls-3{fill:#9fe6ff;}.cls-4{fill:#004e9c;}.cls-5{fill:#71a8c1;}.cls-6{fill:#f4f4f4;}.cls-7{fill:#1d3850;}.cls-8{fill:#659fb7;}.cls-9{fill:#11263f;}.cls-10{fill:#0091ba;}.cls-11{fill:#f8f6ec;}</style></defs><path class="cls-4" d="M264.27,197.6s19.6,3.21,20.95,19.86.68,33.67,0,33.49-4.73,6.48-6.08,8.48-13.51,9.28-14.87,7.31.68-17.97.68-17.97c0,0,6.76-4.63,6.76-11.33,0-8.66-.68-17.99-.68-17.99l-6.76-3.35v-18.51Z"/><path class="cls-9" d="M211.39,355.69c-.91,6.97,9.08,17.25,19.57,16.38,14.07-1.17,20.31-21.67,15.95-27.55-5.52-7.44-34.1.3-35.52,11.17Z"/><path class="cls-9" d="M104.99,355.91c.92,6.97-9.18,17.25-19.8,16.38-14.23-1.17-20.55-21.67-16.13-27.55,5.59-7.44,34.5.3,35.93,11.17Z"/><path class="cls-5" d="M100.36,97.63h117.7c26.26,0,47.54,21.98,47.54,49.1v161.41c0,24.55-19.27,44.45-43.04,44.45H92.35c-24.26,0-43.93-20.31-43.93-45.37v-155.95c0-29.63,23.26-53.65,51.94-53.65Z"/><rect class="cls-2" x="108.76" y="58.59" width="17.84" height="39.38"/><rect class="cls-2" x="189.47" y="59.68" width="17.84" height="38.28"/><path class="cls-8" d="M112.38,46h88.92s11.01,1.47,11.01,8.83c0,6.38-1.33,10.63-8.66,10.71s-91.27.91-91.27.91c0,0-10.66-1.96-10.99-10.23-.33-8.27,10.99-10.23,10.99-10.23Z"/><path class="cls-4" d="M48.42,196.02s-19.32,3.21-20.65,19.86-.67,33.67,0,33.49,4.66,6.48,6,8.48,13.32,9.28,14.66,7.31-.67-17.97-.67-17.97c0,0-6.66-4.63-6.66-11.33,0-8.66.67-17.99.67-17.99l6.66-3.35v-18.51Z"/><circle class="cls-7" cx="105.38" cy="158.92" r="23.65"/><circle class="cls-7" cx="211.31" cy="158.92" r="23.65"/><circle class="cls-11" cx="93.72" cy="164.58" r="5.33"/><circle class="cls-11" cx="101.38" cy="155.59" r="3.66"/><circle class="cls-11" cx="199.65" cy="164.58" r="5.33"/><circle class="cls-11" cx="207.31" cy="155.59" r="3.66"/><path class="cls-9" d="M145.69,164.78s1.59,9.42,12.3,9.13,12.03-10.65,12.68-10.65"/><polygon class="cls-10" points="48.42 234.93 265.6 234.93 265.6 275.17 170.67 275.17 48.42 275.17 48.42 234.93"/><path class="cls-1" d="M170.67,254.81s-1.67,19.32-12.32,19.17-12.66-18.13-12.66-19.46-5.33-14.53,0-15.99,23.03-2.29,25.32,0c2.66,2.66-.67,16.56-.33,16.28Z"/><rect class="cls-10" x="153.94" y="246.6" width="7.2" height="16.59"/><path class="cls-4" d="M54.91,294.41l49.95,52.28c-.37,2.81-.95,3.64-1.49,3.72-.07.01-.13,0-.18,0-26.72-3.75-37.45-13.34-37.45-13.34-12.33-11.27-14.38-31.41-14.62-41.09-.05-2.01,2.41-3.03,3.8-1.57Z"/><path class="cls-4" d="M260.84,292.52l-53.87,52.22c-1.47,1.43-.33,3.79,1.8,3.72,9.1-.29,27.39-2.33,40.39-13.33,13.3-11.26,15.51-31.38,15.77-41.04.05-2.01-2.59-3.02-4.1-1.57Z"/><path class="cls-4" d="M127.7,97.96s2-22.98,30.65-23.49c28.65-.51,30.65,23.49,30.65,23.49h-8.35s-2.31-17.02-22.3-17.42c-19.99-.4-22.49,17.42-22.49,17.42h-8.16Z"/><path class="cls-3" d="M119.8,118.07c6.42-1.23,6.1-10.55-.39-11.31-12.27-1.43-27.58.54-35.9,1.77-10.35,1.53-19.51,8.7-21.3,25.87-.4,3.85,4.82,5.36,6.57,1.91,2.82-5.54,6.78-10.44,12.12-11.23,7.71-1.14,25.48-4.46,38.89-7.02Z"/><path class="cls-6" d="M89.03,117.45c2.25-.43,2.14-3.69-.14-3.96-4.29-.5-9.65.19-12.56.62-3.62.54-6.83,3.04-7.45,9.05-.14,1.35,1.69,1.88,2.3.67.99-1.94,2.37-3.65,4.24-3.93,2.7-.4,8.91-1.56,13.61-2.46Z"/></svg>