<?xml version="1.0" encoding="UTF-8"?><svg id="Layer_8" xmlns="http://www.w3.org/2000/svg" viewBox="0 0 302 410"><defs><style>.cls-1{fill:#e0aa53;}.cls-2{fill:#fbffd9;}.cls-3{fill:#874654;}.cls-4{fill:#23191f;}.cls-5{fill:#c17c5f;}.cls-6{fill:#c07b5e;}.cls-7{fill:#4a2f3e;}.cls-8{fill:#f6bf5a;}.cls-9{fill:#e9ead6;}.cls-10{fill:#fbfde1;}</style></defs><path class="cls-8" d="M70.78,90.76h142.88c24.79,0,44.89,19.21,44.89,42.9v168.91c0,21.22-18.14,38.34-40.34,38.09l-157.2-1.83c-17.11-.2-30.87-13.51-30.87-29.86v-179.38c0-21.45,18.19-38.83,40.63-38.83Z"/><path class="cls-1" d="M76.82,292.86s19.13,37.83,11.09,37.06c-8.03-.77,155.71.01,155.71.01v-200.59s-.72-29.81-50.1-30.54c-49.38-.73,21.86,7.31,22.2,42.41.35,35.1-5.01,99.32-5.01,99.32,0,0-73.46,51.86-133.9,52.33Z"/><path class="cls-2" d="M40.43,283.86h3.76c1.09,0,1.98-.88,1.98-1.98v-151.39s1.87-23.95,21.76-25.97c17.97-1.83,80.6-.35,92.53-.05,1.08.03,1.97-.84,1.97-1.92v-3.52c0-1.06-.86-1.93-1.93-1.93H60.28s-20.66,4.81-22.19,32.16c-1.41,25.15-.23,134.79-.03,152.26.01,1.3,1.07,2.35,2.38,2.35Z"/><polygon class="cls-4" points="169.02 90.76 186.97 92.22 186.97 46.69 169.04 46.69 169.02 90.76"/><rect class="cls-4" x="100.26" y="46.69" width="15.56" height="44.07"/><path class="cls-5" d="M243.63,182.17s31.37,7.31,31.37,16.82-1.53,40.22-1.53,40.22c0,0-5.36,14.63-28.31,15.36v-19.49l13.01-.26s5.36-1.46,5.36-14.63-2.3-15.36-2.3-15.36c0,0-2.07-5.26-17.6-5.26v-17.41Z"/><path class="cls-2" d="M56.93,141.22l64.27,2.19s-6.89,34.3-32.14,33.97c-25.25-.33-34.43-27.39-32.14-36.16Z"/><path class="cls-10" d="M136.98,143.19l64.29-1.63s-4.64,34.64-29.86,35.81c-25.22,1.17-36.15-25.29-34.43-34.18Z"/><polygon points="124.26 141.56 124.26 147.3 52.34 144.43 52.34 138.59 124.26 141.56"/><polygon points="133.44 141.56 204.6 139.63 204.6 147.3 133.59 147.3 133.44 141.56"/><path d="M66.87,139.63s.83,21.91,19.4,22.77,22.96-20.11,22.67-20.95"/><path d="M147.95,144.02s2.96,19.51,21.51,18.45c18.55-1.07,20.89-20.25,20.51-20.97"/><ellipse class="cls-10" cx="79.5" cy="153.28" rx="2.68" ry="2.56"/><ellipse class="cls-10" cx="161.37" cy="154.01" rx="2.68" ry="2.56"/><path class="cls-9" d="M67.76,145.02l-10.84-.43s.38,8.67,1.84,9.02,11.2-2.45,11.2-2.45l-2.21-6.14Z"/><path class="cls-9" d="M107.59,146.66l12.84.48s-2.11,8.66-3.28,8.68-12.64-3.02-12.64-3.02"/><path class="cls-9" d="M136.94,147.3h11.85s2.37,5.51,2.74,5.98c.29.37-12.29,2.27-12.29,2.27,0,0-2.72-7.02-2.29-8.25Z"/><path class="cls-9" d="M188.85,147.3h11.22l-1.93,6.21-11.16-1.95s2.19-4.03,1.87-4.26Z"/><path class="cls-7" d="M107.55,90.76s7.52-20.48,32.01-20.48,35.54,20.48,35.54,20.48h-19.09s-.38-10.97-17.21-10.24c-16.84.73-14.54,10.24-14.54,10.24h-16.71Z"/><path class="cls-3" d="M155.49,196.07c1.36-1.39,4.57,2.61,4.73,5.31.5,8.23-19.78,14.35-25.22,14.4-3.08.03-1.46-5.35.79-6.06,8.37-2.68,6.08-1.22,11.82-3.03,5.75-1.81,5.73-8.42,7.88-10.61Z"/><path class="cls-7" d="M107.55,22.59l74.09.16s12.27,3.97,11.87,13.68-6.55,10.26-6.55,10.26h-82.46s-9.47,2.03-10.17-12.05c-.7-14.08,13.2-12.05,13.2-12.05Z"/><ellipse class="cls-8" cx="59.22" cy="353.29" rx="19.89" ry="19.01"/><ellipse class="cls-8" cx="100.54" cy="353.29" rx="19.89" ry="19.01"/><ellipse class="cls-8" cx="189.3" cy="355.48" rx="19.89" ry="19.01"/><ellipse class="cls-1" cx="230.62" cy="355.48" rx="19.89" ry="19.01"/><path class="cls-6" d="M46.6,285.64c11.6-3.62,40.32,32.53,32.9,43.88-4.35,6.65-22.3,6.58-32.9-2.19-15.61-12.93-8.44-39.05,0-41.68Z"/><path class="cls-6" d="M240.47,285.74c-13.61-3.62-47.32,32.53-38.61,43.88,5.1,6.65,26.16,6.58,38.61-2.19,18.32-12.93,9.9-39.05,0-41.68Z"/><ellipse class="cls-2" cx="58.84" cy="353.65" rx="13.39" ry="12.8"/><ellipse class="cls-2" cx="189.68" cy="355.85" rx="13.39" ry="12.8"/><ellipse class="cls-3" cx="58.84" cy="353.65" rx="4.97" ry="4.75"/><ellipse class="cls-3" cx="189.68" cy="355.85" rx="4.97" ry="4.75"/></svg>