<?xml version="1.0" encoding="UTF-8"?><svg id="Layer_10" xmlns="http://www.w3.org/2000/svg" viewBox="0 0 453 165"><defs><style>.cls-1{fill:#f6bf5a;font-family:Skia-Black, Skia;font-size:72px;font-variation-settings:'wght' 3, 'wdth' 1;font-weight:800;}.cls-2{fill:#b0bcc1;}.cls-3{fill:#4b7087;}.cls-4{fill:#132430;stroke:#000;stroke-miterlimit:10;stroke-width:3px;}</style></defs><rect class="cls-4" x="9.5" y="6.5" width="427" height="147" rx="73.5" ry="73.5"/><path class="cls-3" d="M338.84,20.92s81.83-18.77,83.61,46.16c1.78,64.93-24.44,12.53-26.2-9.76-1.63-20.8-28.66-39.58-57.42-36.4Z"/><path class="cls-3" d="M31.03,53.07s-37.15,50.64,20.49,79.69,17.29-12.16-2.22-22.96c-18.2-10.07-28.27-37.48-18.28-56.74Z"/><path class="cls-2" d="M25.25,82.58s-15.48,19.25,30.49,46.4c45.96,27.15,9.53-2.92-6.22-12.62-14.69-9.05-27.28-25.62-24.27-33.79Z"/><path class="cls-2" d="M379.16,27.11s24.67-9.23,34.99,37.68c10.31,46.91-6.33,7.75-10.26-8.42-3.66-15.08-15.55-30.04-24.73-29.26Z"/><text class="cls-1" transform="translate(128.86 98.06)"><tspan x="0" y="0">start</tspan></text></svg>