<?xml version="1.0" encoding="UTF-8"?><svg id="Layer_4" xmlns="http://www.w3.org/2000/svg" viewBox="0 0 1690.46 175"><defs><style>.cls-1{fill:none;stroke:#ff5055;stroke-miterlimit:10;stroke-width:7px;}.cls-2,.cls-3,.cls-4{font-family:RLAqva-Black, 'RL Aqva';font-size:47.55px;font-weight:800;}.cls-2,.cls-3,.cls-5{letter-spacing:.01em;}.cls-6{letter-spacing:0em;}.cls-7{fill:#ff5055;}.cls-3{fill:#d0f3ff;}.cls-8{letter-spacing:-.02em;}.cls-9{letter-spacing:0em;}</style></defs><polygon class="cls-7" points="1151.1 30.23 1082.46 145 1339.45 144.56 1405.68 33.17 1151.1 30.23"/><polygon class="cls-1" points="94.1 33.23 25.46 148 1587.06 148 1647.27 33.23 94.1 33.23"/><line class="cls-1" x1="1393.14" y1="32.04" x2="1326.92" y2="143.43"/><line class="cls-1" x1="851.14" y1="35.04" x2="784.92" y2="146.43"/><line class="cls-1" x1="592.14" y1="32.04" x2="525.92" y2="143.43"/><line class="cls-1" x1="1153.14" y1="32.04" x2="1086.92" y2="143.43"/><text class="cls-4" transform="translate(132.06 110.53) scale(1.05 1)"><tspan class="cls-5" x="0" y="0">T</tspan><tspan class="cls-9" x="30.57" y="0">0</tspan><tspan class="cls-5" x="62.76" y="0">1</tspan></text><text class="cls-4" transform="translate(385.19 110.92) scale(1.05 1)"><tspan class="cls-5" x="0" y="0">T</tspan><tspan class="cls-8" x="30.57" y="0">0</tspan><tspan class="cls-5" x="61.91" y="0">2</tspan></text><text class="cls-4" transform="translate(640.44 110.92) scale(1.05 1)"><tspan class="cls-5" x="0" y="0">T</tspan><tspan class="cls-6" x="30.57" y="0">0</tspan><tspan class="cls-5" x="63" y="0">3</tspan></text><text class="cls-4" transform="translate(916.39 110.92) scale(1.05 1)"><tspan class="cls-5" x="0" y="0">T</tspan><tspan class="cls-6" x="30.57" y="0">0</tspan><tspan class="cls-5" x="63" y="0">4</tspan></text><text class="cls-3" transform="translate(1188.14 110.92) scale(1.05 1)"><tspan x="0" y="0">T05</tspan></text><text class="cls-2" transform="translate(1434.89 110.92) scale(1.05 1)"><tspan x="0" y="0">T06</tspan></text><line class="cls-1" x1="340.68" y1="35.03" x2="274.46" y2="146.41"/></svg>